<?xml version="1.0" encoding="UTF-8"?>
<svg id="svg949" xmlns="http://www.w3.org/2000/svg" version="1.1" xmlns:svg="http://www.w3.org/2000/svg" viewBox="0 0 1024 194">
  <defs>
    <style>
      .cls-1 {
        fill: #86868b;
        stroke-width: 0px;
      }
    </style>
  </defs>
  <path id="path858" class="cls-1" d="M93,5.7c-30.2.7-52.4,17-51.4,47.1,1.3,36.5,33.2,47,44.8,51.4,13.7,5.3,30,12.7,37.8,26.3,11,18.8,4.7,43.1-14.1,54.1-2.7,1.6-5.7,2.9-8.7,3.8,21.6-2.5,39.9-16.9,47.4-37.3,5.9-16,3.6-33.8-6.3-47.7-6.1-7.8-12.7-15.2-19.8-22.1-12.7-12.9-22.7-23.1-22.7-40.5s12.7-26.8,25.1-30.4c-11.2-3.3-22.2-4.8-32.2-4.6ZM132,18.1c-12.7,0-23,10.2-23.1,22.8,0,13.9,7.5,23.2,20.2,34.5,38,33.6,41.2,71.2,14.3,100.6,14.1-7.7,25.4-19.7,32.2-34.2,9.8-20.8,8.3-45.1-4-64.6-7-12.1,2.6-17.9,11.7-10.7h0c-4.8-16.8-22.2-46.4-51.4-48.5h0Z"/>
  <path id="path860" class="cls-1" d="M118.1,162.9c-5.1,13-20.6,29.9-47.4,21.7C32.2,172.7,5.8,137.3,5.5,97c.3-26.7,12.1-51.9,32.4-69.3-9.1,20.5-5.7,44.4,8.6,61.7,11.1,13,24.2,18.1,36.9,23,0,0,49,13.8,34.7,50.5h0Z"/>
  <path id="polygon864" class="cls-1" d="M669.5,51.4c-27.9,0-46.5,19.9-46.5,45.3s19.8,45.3,46.5,45.3,46.5-18.7,46.5-45.3-19.9-45.3-46.5-45.3ZM250.1,52.9v87.5h18.8v-52.5l41.5,52.5h16V52.9h-18.8v52.8l-41.5-52.8h-16ZM383.7,52.9l-36.5,87.5h20.2l7.2-18.4h34.9l7.3,18.4h21.4l-36.6-87.5h-17.9ZM461.3,52.9v87.5h20v-31.5h26.9v-18.8h-26.9v-18.5h30.6v-18.8h-50.7ZM535,52.9v18.8h26.3v68.8h20v-68.8h26.3v-18.8h-72.6ZM669.5,70.2c13.8-.2,25.1,10.9,25.3,24.7,0,.6,0,1.2,0,1.9,0,14.7-8.6,26.5-25.3,26.5-14.2-.2-25.5-11.9-25.3-26,0-.2,0-.3,0-.5,0-16,10.8-26.5,25.3-26.5ZM392.3,78.5l9.7,24.8h-19.8l10-24.8Z"/>
  <path id="path874" class="cls-1" d="M783.1,51.4c-27.5,0-44.4,20.1-44.4,45.3s16.8,45.3,46.9,45.3c12.1,0,23.7-4.5,32.8-12.4v-39h-37.4v18.7h18.6v9.6c-4.1,2.8-8.8,4.3-13.8,4.4-15.6,0-25.9-10.4-25.9-26.5s11.1-26.5,25.5-26.5c6.6,0,12.9,2.2,17.9,6.5l8.4-16.1c-8.1-6.4-18.3-9.7-28.7-9.2h0ZM872.6,52.9l-36.4,87.5h20.1l7.3-18.4h34.6l7.2,18.4h21.4l-36.4-87.5h-17.9ZM949.8,52.9v18.8h40.8l-43.3,54.8v14h71.3v-18.7h-44.6l43.4-54.8v-14h-67.5ZM881.1,78.5l9.8,24.8h-19.8l10-24.8Z"/>
</svg>