<?xml version="1.0" encoding="UTF-8"?>
<svg id="svg1019" xmlns="http://www.w3.org/2000/svg" version="1.1" viewBox="0 0 1012.9 166">
  <defs>
    <style>
      .cls-1 {
        fill: #86868b;
        fill-rule: evenodd;
        stroke-width: 0px;
      }
    </style>
  </defs>
  <path id="path510" class="cls-1" d="M227.9,112.3h-20.6v-25.5h20.6c5.2,0,9,.4,11.2,1.3,5.1,1.6,7.8,5.4,7.8,11.2,0,8.7-6.3,13-19,13ZM233.1,68.4h-52.1v95h26.2v-32.6h25.1c28.6,0,42.9-10.7,42.9-31.7s-14.1-30.8-42.1-30.8h0ZM337.9,105.4c-10.7,0-17.9,3.3-22.1,9.9-2.9,4.5-4.3,11-4.3,19.7v28.2h-24.2v-68.7h24.2v11.2c5.1-9.2,14.6-13.9,28.6-13.9h2.9v13.6s-5.1,0-5.1,0ZM380.4,84.5h-25.1v-16.1h25.1v16.1ZM379.8,163.3h-24.2v-68.7h24.2v68.7ZM446,163.3h-27l-29.7-68.7h26.4l16.8,48.1,16.6-48.1h26.4l-29.7,68.7h.2ZM516.4,152.1c-3.1,0-5.8-.5-8.1-1.8-2.9-1.4-4.2-3.4-4.2-6.1,0-5.2,4.7-8.5,14.1-9.9,5.6-.7,8.5-1.3,8.7-1.3,1.5-.4,3.8-1.1,7.2-2.4v4.3c0,6.3-2.3,11-7,14.1-3.3,2-6.7,3.1-10.7,3.1h0ZM558.3,157.9c-.4-1.6-.5-4.5-.5-8.7l.5-31.5c0-6.7-1.5-11.8-4.3-15.4-5.6-7.1-16.6-10.5-32.9-10.5s-23.7,2.7-30.2,8.1c-5.1,4.2-7.6,9.8-8,16.8h23.1c0-7.4,5.1-11.2,15-11.2s13,3.1,13,9.2v1.8c0,2.7-1.3,4.3-3.8,5.1-1.6.5-7,1.3-15.9,2.2-11.8,1.1-20.3,3.3-25.5,6.1-6.5,3.4-9.8,8.7-9.8,15.9s1.6,9.6,5.1,13c4.7,4.7,12.5,7.1,23.1,7.1s21.2-3.1,27.1-9.4h.5l2,6.7h25.5v-1.1c-2.2-.5-3.6-2-4.2-4.3h.2ZM601.4,165.3c-8.1,0-13.9-1.6-17.4-5.1-2.9-3.1-4.2-8.1-4.2-15v-36.9h-14.8v-13.8h14.8v-20.8h24.2v20.8h17.2v13.8h-17.2v33.1c0,3.3.4,5.4,1.1,6.5,1.3,2,4.2,2.9,8.5,2.9s5.1-.4,7.6-1.3v13.9c-7.4,1.3-14.1,1.8-19.9,1.8h.1ZM694.4,102.6c-2.2,2.2-5.6,3.3-10.1,3.3h-24.2v-19h23.2c9.4,0,14.1,3.1,14.1,9.2s-.9,4.9-2.9,6.5h0ZM705.9,112.5v-.2c12.1-3.4,18.3-9.9,18.3-19.7,0-16.1-11.6-24.2-34.5-24.2h-55.9v95h53.2c28.6,0,42.9-8.9,42.9-26.6s-3.1-14.1-9.4-18.6c-4-2.7-8.7-4.7-14.5-5.6h0ZM687.3,145.1h-27.3v-21.7h25.5c.9.2,2,.2,3.1.2,4.3,0,7.8,1.3,10.3,3.6,2,2,3.1,4.3,3.1,7.1,0,4-2,7.1-6,8.9-2.7,1.3-5.6,2-8.7,2h0ZM787.5,149c-3.1,2-6.7,3.1-10.5,3.1s-6-.5-8.3-1.8c-2.7-1.4-4.2-3.4-4.2-6.1,0-5.2,4.9-8.5,14.3-9.9,5.4-.7,8.3-1.3,8.7-1.3,1.5-.4,3.8-1.1,7.2-2.4v4.3c0,6.3-2.3,11-7.2,14.1h0ZM819,157.9c-.5-1.6-.5-4.5-.5-8.7l.4-31.5c.2-6.7-1.3-11.8-4.2-15.4-5.8-7.1-16.6-10.5-32.9-10.5s-23.7,2.7-30.2,8.1c-5.1,4.2-7.8,9.8-8,16.8h23.2c0-7.4,5.1-11.2,14.8-11.2s13.2,3.1,13.2,9.2v1.8c0,2.7-1.5,4.3-3.8,5.1-1.8.5-7,1.3-15.9,2.2-11.8,1.1-20.4,3.3-25.5,6.1-6.7,3.4-10,8.7-10,15.9s1.8,9.6,5.2,13c4.7,4.7,12.5,7.1,23.2,7.1s21.2-3.1,27.1-9.4h.5l2,6.7h25.5v-1.1c-2.2-.5-3.6-2-4.2-4.3h.1ZM890.6,163.3v-39.8c0-11.9-4.5-17.9-13.8-17.9s-8.9,1.6-11.8,4.9-4.3,8-4.3,14.1v38.7h-24.4v-68.7h23.3v8.1c6.3-7.2,15.5-10.8,28-10.8,18.3,0,27.3,9.4,27.3,28.2v43.2h-24.4.1ZM1012.9,163.3h-28.8l-22.8-28.6-8.1,7.2v21.3h-24.4v-95h24.4v52.3l27.7-26.1h29.3l-32.4,27.1,35.1,41.6h0v.2ZM0,0v79.2h17c44.3,0,66.7,22.6,66.7,66.9v16.8h79.2V0H0ZM129.3,129.3h-13c-5.6-47.4-35.3-77.1-82.5-82.7v-13h95.5v95.7Z"/>
  <path id="path512" class="cls-1" d="M63.7,163v-63.7H0v63.7h63.7Z"/>
</svg>