<?xml version="1.0" encoding="UTF-8"?>
<svg id="_Слой_1" data-name="Слой 1" xmlns="http://www.w3.org/2000/svg" version="1.1" viewBox="0 0 717 161">
  <defs>
    <style>
      .cls-1 {
        fill: #86868b;
        stroke-width: 0px;
      }
    </style>
  </defs>
  <path class="cls-1" d="M34.8,38.3h98.4L98.4,3.5H0l34.8,34.8Z"/>
  <path class="cls-1" d="M171.5,49.2l-38.3,38.3v-49.2L171.5,0v49.2Z"/>
  <path class="cls-1" d="M205.8,160.1L84,38.3v49.2l72.6,72.6h49.2Z"/>
  <path class="cls-1" d="M541,99.5c-7.8,7.2-17,10.8-28.1,10.8s-20.4-3.6-28.1-10.8c-7.8-7.2-11.6-16.1-11.6-26.4s3.8-19,11.6-26.4c7.8-7.4,17.1-11,28.1-11s20.4,3.6,28.1,11,11.7,16,11.7,26.4-4,19-11.7,26.4ZM498.5,87.5c2.9,2.8,6.5,4.7,10.4,5.4,3.9.8,8,.3,11.7-1.2,3.7-1.5,6.9-4.1,9.1-7.4,2.2-3.3,3.5-7.2,3.5-11.2,0-2.7-.5-5.3-1.6-7.8-1-2.5-2.6-4.7-4.5-6.5-1.9-1.9-4.1-3.4-6.5-4.5-2.5-1-5.1-1.6-7.8-1.6s-5.3.5-7.8,1.6c-2.5,1-4.7,2.6-6.5,4.5-3.8,3.8-5.9,8.9-6,14.3,0,5.4,2.1,10.5,5.9,14.4Z"/>
  <path class="cls-1" d="M241.1,107.9V38.3h43.2c5.9.1,11.5,2.3,16,6.1,2.7,2.3,4.9,5.1,6.3,8.4,1.5,3.2,2.2,6.7,2.1,10.3,0,3.3-.6,6.6-1.9,9.7-1.3,3.1-3.3,5.8-5.8,8-5.1,4.7-10.7,7-16.8,7h-24.3v20.2h-19ZM260.1,70.5h23.5c1.2,0,2.4-.4,3.5-1,1.9-.8,3.1-3.2,3.1-6.5s-1.2-5.9-3.1-6.7c-1.1-.6-2.3-.9-3.6-.9h-23.4v15.1Z"/>
  <path class="cls-1" d="M319.9,107.9V38.3h60.9v16.6h-42v10.5h39.8v14.6h-39.7v11.6h42.8v16.3h-61.7Z"/>
  <path class="cls-1" d="M563.8,107.9V35.9l38.2,38,38.1-38v72h-17.7v-31.5l-20.4,20.8-20.5-20.8v31.5h-17.7Z"/>
  <path class="cls-1" d="M655.1,107.9V38.3h60.9v16.6h-42v10.5h39.5v14.6h-39.4v11.6h42.8v16.3h-61.7Z"/>
  <path class="cls-1" d="M396,107.9V38.3h18.5v24.2h29v-24.2h18.5v69.6h-18.5v-28.1h-29v28.1h-18.5Z"/>
</svg>